<svg id="Layer_1" data-name="Layer 1" xmlns="http://www.w3.org/2000/svg" viewBox="0 0 14.07 14.07"><defs><style>.cls-1{fill:#378243;}</style></defs><path class="cls-1" d="M9.55,5.52c1.88,0,2.1,0,2.84,0a3.8,3.8,0,0,1,1.31.24,2.19,2.19,0,0,1,.81.53,2.09,2.09,0,0,1,.52.81,3.91,3.91,0,0,1,.25,1.3c0,.74,0,1,0,2.85s0,2.1,0,2.84A4,4,0,0,1,15,15.44a2.17,2.17,0,0,1-.52.81,2.3,2.3,0,0,1-.81.52,3.8,3.8,0,0,1-1.31.24c-.74,0-1,0-2.84,0s-2.1,0-2.85,0a3.78,3.78,0,0,1-1.3-.24,2.21,2.21,0,0,1-.81-.52,2.28,2.28,0,0,1-.53-.81,4.06,4.06,0,0,1-.24-1.31c0-.74,0-1,0-2.84s0-2.11,0-2.85a4,4,0,0,1,.24-1.3,2.11,2.11,0,0,1,.53-.81A2.19,2.19,0,0,1,5.4,5.8a3.8,3.8,0,0,1,1.31-.24c.74,0,1,0,2.84,0m0-1.27c-1.91,0-2.15,0-2.9,0a5.17,5.17,0,0,0-1.71.33,3.49,3.49,0,0,0-1.25.81,3.4,3.4,0,0,0-.81,1.25,5.37,5.37,0,0,0-.33,1.7c0,.76,0,1,0,2.91s0,2.15,0,2.9a5.44,5.44,0,0,0,.33,1.71,3.45,3.45,0,0,0,.81,1.24A3.49,3.49,0,0,0,4.94,18a4.93,4.93,0,0,0,1.71.33c.75,0,1,0,2.9,0s2.15,0,2.9,0A4.93,4.93,0,0,0,14.16,18a3.61,3.61,0,0,0,2.05-2,4.93,4.93,0,0,0,.33-1.71c0-.75,0-1,0-2.9s0-2.15,0-2.9a5.15,5.15,0,0,0-.32-1.71,3.31,3.31,0,0,0-.82-1.25,3.45,3.45,0,0,0-1.24-.81,5.17,5.17,0,0,0-1.71-.33c-.75,0-1,0-2.9,0Z" transform="translate(-2.51 -4.25)"/><path class="cls-1" d="M9.55,7.67a3.62,3.62,0,1,0,3.61,3.62A3.63,3.63,0,0,0,9.55,7.67Zm0,6a2.35,2.35,0,1,1,2.34-2.34A2.35,2.35,0,0,1,9.55,13.63Z" transform="translate(-2.51 -4.25)"/><circle class="cls-1" cx="13.3" cy="7.53" r="0.84" transform="translate(-1.85 11.87) rotate(-63.69)"/></svg>