<svg id="Layer_1" data-name="Layer 1" xmlns="http://www.w3.org/2000/svg" viewBox="0 0 141.78 54.7"><defs><style>.cls-1{fill:#9ef9a3;}.cls-2{fill:#378343;}</style></defs><path class="cls-1" d="M57.69,66.54h11.1v3.2H61.48v3.38h6.2V76.3h-6.2v3.88h7.57v3.2H57.68Z" transform="translate(-35.85 -28.99)"/><path class="cls-1" d="M76.6,69.74h-5v-3.2h13.9v3.2h-5V83.38H76.59Z" transform="translate(-35.85 -28.99)"/><path class="cls-2" d="M88.89,66.43h5.2a11.83,11.83,0,0,1,2.55.26,5.25,5.25,0,0,1,2,.84,3.9,3.9,0,0,1,1.26,1.54,6.16,6.16,0,0,1,0,4.67,4.27,4.27,0,0,1-1.27,1.63,5.81,5.81,0,0,1-2,1,9.27,9.27,0,0,1-2.55.32H91v6.72H88.89Zm4.91,8.48a5.35,5.35,0,0,0,3.32-.84,3.18,3.18,0,0,0,1.07-2.65,2.79,2.79,0,0,0-1.1-2.55,6.16,6.16,0,0,0-3.29-.71H91v6.75Z" transform="translate(-35.85 -28.99)"/><path class="cls-2" d="M105.22,66.43h2.12V81.55h8.39v1.83H105.22Z" transform="translate(-35.85 -28.99)"/><path class="cls-2" d="M128.06,78.21h-6.15l-1.63,5.17h-2.2l5.71-16.95h2.43l5.71,16.95h-2.27Zm-.55-1.73-.8-2.58c-.29-1-.57-1.89-.85-2.83s-.55-1.9-.83-2.88h-.1c-.28,1-.55,1.94-.83,2.88s-.56,1.88-.85,2.83l-.8,2.58Z" transform="translate(-35.85 -28.99)"/><path class="cls-2" d="M134.9,66.43h2.2l5.5,10.7,1.7,3.46h.06c0-.84-.09-1.73-.17-2.65s-.12-1.83-.12-2.72V66.43h2V83.38h-2.19l-5.51-10.7-1.7-3.46h-.05c0,.88.09,1.76.17,2.65s.11,1.77.11,2.65v8.86h-2Z" transform="translate(-35.85 -28.99)"/><path class="cls-2" d="M154.92,68.24h-5.58V66.43h13.33v1.81h-5.58V83.38h-2.17Z" transform="translate(-35.85 -28.99)"/><path class="cls-2" d="M166.78,79.69A7.85,7.85,0,0,0,169,81.22a6.25,6.25,0,0,0,2.66.58,4.43,4.43,0,0,0,2.79-.76,2.39,2.39,0,0,0,1-2,2.32,2.32,0,0,0-.23-1.1,2.26,2.26,0,0,0-.64-.77,5.32,5.32,0,0,0-1-.59l-1.2-.54L170,75a10.83,10.83,0,0,1-1.29-.62,5.11,5.11,0,0,1-1.18-.88,4.35,4.35,0,0,1-.87-1.22,3.87,3.87,0,0,1-.33-1.64,4.05,4.05,0,0,1,.41-1.79,4.51,4.51,0,0,1,1.15-1.43,5.39,5.39,0,0,1,1.76-.94,6.91,6.91,0,0,1,2.23-.34,7.5,7.5,0,0,1,2.95.58,7.32,7.32,0,0,1,2.27,1.51l-1.14,1.4a6.54,6.54,0,0,0-1.82-1.18,5.73,5.73,0,0,0-2.26-.42,4.07,4.07,0,0,0-2.45.66,2.13,2.13,0,0,0-.91,1.82,1.9,1.9,0,0,0,.28,1,2.73,2.73,0,0,0,.69.75,4.82,4.82,0,0,0,1,.56l1.09.46,2.37,1a9.41,9.41,0,0,1,1.46.71,5.06,5.06,0,0,1,1.19.93,3.89,3.89,0,0,1,.8,1.24,4.17,4.17,0,0,1,.3,1.64,4.41,4.41,0,0,1-.41,1.88A4.66,4.66,0,0,1,176,82.28a5.74,5.74,0,0,1-1.89,1,8.06,8.06,0,0,1-2.5.37,8.49,8.49,0,0,1-6.15-2.51Z" transform="translate(-35.85 -28.99)"/><path class="cls-2" d="M72.43,36C60.65,37,52.06,41.89,46.87,50.49a30.73,30.73,0,0,0-4.32,15.95V83.69h-6.7V66.44A37.51,37.51,0,0,1,41.13,47c4.77-7.88,14.6-17.38,34.4-18l3-.09s4.67,27.26-22.36,35C56.19,64,70.44,52.73,72.43,36Z" transform="translate(-35.85 -28.99)"/><path class="cls-1" d="M67.48,42.06c-8.86,7-11.41,14.32-11.41,14.32C54.15,61,54.31,64.61,54.31,69V83.38H47.62V69a35.45,35.45,0,0,1,3.19-15A20.75,20.75,0,0,1,67.48,42.06Z" transform="translate(-35.85 -28.99)"/></svg>