<svg id="Layer_1" data-name="Layer 1" xmlns="http://www.w3.org/2000/svg" viewBox="0 0 26.73 26.73"><defs><style>.cls-1{fill:#344e51;}.cls-2{fill:#fff;}</style></defs><rect class="cls-1" width="26.73" height="26.73" rx="4.56"/><path class="cls-2" d="M14.42,11.7c.77-.9-.06-2.07-.58-2.88-.29-.46-.72-1.12-1.33-1.2s-1.09.57-1.47.92a4.42,4.42,0,0,0-1.47,3.14v.16A9.15,9.15,0,0,0,10,14a8.59,8.59,0,0,0,1,1.86,16.54,16.54,0,0,0,2.86,3.38,8.55,8.55,0,0,0,3.77,2.16,4.42,4.42,0,0,0,3.78-.9c.39-.32,1.11-.78,1.14-1.33a1.83,1.83,0,0,0-.79-1.34c-.82-.73-2-1.93-3.12-1-.43.35-.88,1-1.46,1.1a2.15,2.15,0,0,1-1.54-.64,9.31,9.31,0,0,1-2.37-2.85,1.56,1.56,0,0,1-.1-1.56C13.48,12.36,14.05,12.14,14.42,11.7Z" transform="translate(-2.67 -2.02)"/></svg>