<svg id="Layer_1" data-name="Layer 1" xmlns="http://www.w3.org/2000/svg" viewBox="0 0 59.56 39.97"><defs><style>.cls-1{fill:#96bb4a;}</style></defs><path class="cls-1" d="M44.46,45.82H33.88L35,42.76a52.86,52.86,0,0,0,2.69-9.54,17,17,0,0,0-2.09-.87c-3.12-1.16-7.84-2.92-9.89-8.38A13.5,13.5,0,0,1,26.91,11.4c2.49-3.58,6.66-5.55,11.74-5.55s8.86,1.9,11.13,5.49c4.16,6.54,2.57,17.7-4.71,33.17Zm-4.14-4.54h1.25C49.5,23.9,47.75,16.59,46,13.77c-1.42-2.25-3.88-3.39-7.3-3.39s-6.4,1.28-8,3.6a9,9,0,0,0-.67,8.4c1.32,3.53,4.46,4.69,7.22,5.72C39.49,29,42.34,30,42.26,33A36.2,36.2,0,0,1,40.32,41.28Z" transform="translate(-24.72 -5.85)"/><path class="cls-1" d="M76.7,45.82H66.12l1.14-3.06A52.86,52.86,0,0,0,70,33.22a17.7,17.7,0,0,0-2.09-.87C64.73,31.19,60,29.43,58,24A13.44,13.44,0,0,1,59.16,11.4c2.48-3.58,6.65-5.55,11.73-5.55S79.75,7.75,82,11.34c4.16,6.54,2.57,17.7-4.71,33.17Zm-4.13-4.54h1.24C81.75,23.9,80,16.59,78.2,13.77c-1.43-2.25-3.88-3.39-7.31-3.39s-6.4,1.28-8,3.6a9.06,9.06,0,0,0-.67,8.4c1.32,3.53,4.46,4.69,7.23,5.72C71.73,29,74.58,30,74.5,33A36.15,36.15,0,0,1,72.57,41.28Z" transform="translate(-24.72 -5.85)"/></svg>