<svg id="Layer_1" data-name="Layer 1" xmlns="http://www.w3.org/2000/svg" viewBox="0 0 14.46 11.76"><defs><style>.cls-1{fill:#378243;}</style></defs><path class="cls-1" d="M6.86,17.16a8.39,8.39,0,0,0,8.45-8.44c0-.13,0-.26,0-.38A6,6,0,0,0,16.78,6.8a5.72,5.72,0,0,1-1.7.47,3,3,0,0,0,1.3-1.64,6.11,6.11,0,0,1-1.88.72,3,3,0,0,0-5.14,2,2.93,2.93,0,0,0,.08.67A8.41,8.41,0,0,1,3.32,6a3,3,0,0,0-.4,1.49A3,3,0,0,0,4.24,9.91,2.8,2.8,0,0,1,2.9,9.54v0a3,3,0,0,0,2.38,2.91,2.88,2.88,0,0,1-.78.1,2.54,2.54,0,0,1-.56-.05A3,3,0,0,0,6.71,14.6,6,6,0,0,1,3,15.87a5.37,5.37,0,0,1-.7,0,8.39,8.39,0,0,0,4.54,1.33" transform="translate(-2.32 -5.41)"/></svg>